<svg width="120" height="120" viewBox="0 0 120 120" fill="none" xmlns="http://www.w3.org/2000/svg">
<circle cx="60" cy="60" r="60" fill="#00A7A7"/>
<path d="M63.051 57.9661C60.7735 57.9661 58.5892 58.8708 56.9787 60.4813C55.3682 62.0918 54.4635 64.2761 54.4635 66.5536C54.4635 68.8312 55.3682 71.0155 56.9787 72.626C58.5892 74.2364 60.7735 75.1412 63.051 75.1412C65.3286 75.1412 67.5129 74.2364 69.1234 72.626C70.7339 71.0155 71.6386 68.8312 71.6386 66.5536C71.6386 64.2761 70.7339 62.0918 69.1234 60.4813C67.5129 58.8708 65.3286 57.9661 63.051 57.9661ZM55.4782 82.6595C55.2991 82.6585 55.1181 82.681 54.9415 82.7266C49.2952 84.1779 43.729 87.0178 43.729 91.2429V94.4632C43.729 95.6483 44.6908 96.6101 45.8759 96.6101H80.2262C81.4113 96.6101 82.3731 95.6483 82.3731 94.4632V91.2429C82.3731 87.0178 76.8049 84.1779 71.1564 82.7266C70.4501 82.5441 69.686 82.7395 69.1772 83.2633C67.6229 84.8671 65.462 85.8757 63.051 85.8757C60.6401 85.8757 58.4813 84.8671 56.9248 83.2633C56.5432 82.8705 56.0156 82.6626 55.4782 82.6595Z" fill="#F9FFFE"/>
<path d="M38.1357 53.8983C36.6373 53.8983 35.2003 54.4936 34.1407 55.5531C33.0812 56.6126 32.486 58.0496 32.486 59.548C32.486 61.0464 33.0812 62.4835 34.1407 63.543C35.2003 64.6025 36.6373 65.1978 38.1357 65.1978C39.6341 65.1978 41.0711 64.6025 42.1306 63.543C43.1902 62.4835 43.7854 61.0464 43.7854 59.548C43.7854 58.0496 43.1902 56.6126 42.1306 55.5531C41.0711 54.4936 39.6341 53.8983 38.1357 53.8983ZM33.1536 70.144C33.0357 70.1433 32.9166 70.1581 32.8005 70.1882C29.0858 71.143 25.4238 73.0113 25.4238 75.791V77.9096C25.4238 78.6893 26.0566 79.322 26.8363 79.322H49.4351C50.2148 79.322 50.8476 78.6893 50.8476 77.9096V75.791C50.8476 73.0113 47.1843 71.143 43.4682 70.1882C43.0035 70.0681 42.5008 70.1966 42.1661 70.5413C41.1435 71.5963 39.7219 72.2599 38.1357 72.2599C36.5495 72.2599 35.1293 71.5963 34.1053 70.5413C33.8542 70.2828 33.5071 70.1461 33.1536 70.144Z" fill="#F9FFFE"/>
<path d="M87.9663 53.8983C86.4679 53.8983 85.0308 54.4936 83.9713 55.5531C82.9118 56.6126 82.3165 58.0496 82.3165 59.548C82.3165 61.0464 82.9118 62.4835 83.9713 63.543C85.0308 64.6025 86.4679 65.1978 87.9663 65.1978C89.4647 65.1978 90.9017 64.6025 91.9612 63.543C93.0207 62.4835 93.616 61.0464 93.616 59.548C93.616 58.0496 93.0207 56.6126 91.9612 55.5531C90.9017 54.4936 89.4647 53.8983 87.9663 53.8983ZM82.9841 70.144C82.8663 70.1433 82.7472 70.1581 82.631 70.1882C78.9163 71.143 75.2544 73.0113 75.2544 75.791V77.9096C75.2544 78.6893 75.8872 79.322 76.6668 79.322H99.2657C100.045 79.322 100.678 78.6893 100.678 77.9096V75.791C100.678 73.0113 97.0148 71.143 93.2987 70.1882C92.834 70.0681 92.3314 70.1966 91.9966 70.5413C90.974 71.5963 89.5524 72.2599 87.9663 72.2599C86.3801 72.2599 84.9599 71.5963 83.9359 70.5413C83.6848 70.2828 83.3377 70.1461 82.9841 70.144Z" fill="#F9FFFE"/>
<rect x="48.8135" y="22.3729" width="44.7458" height="22.3729" rx="11.1864" fill="white"/>
<path d="M64.4401 49.322C64.0487 50 63.0701 50 62.6787 49.322L57.8348 40.9322C57.4434 40.2542 57.9327 39.4067 58.7155 39.4067L68.4033 39.4067C69.1861 39.4067 69.6754 40.2542 69.284 40.9322L64.4401 49.322Z" fill="white"/>
<rect x="15.2544" y="35.5933" width="24.4068" height="12.2034" rx="6.1017" fill="white"/>
<path d="M33.4233 49.322C33.0318 50 32.0533 50 31.6619 49.322L29.9004 46.2711C29.509 45.5932 29.9983 44.7457 30.7811 44.7457L34.304 44.7457C35.0868 44.7457 35.5761 45.5932 35.1847 46.2711L33.4233 49.322Z" fill="white"/>
<rect x="56.9492" y="27.4576" width="19.322" height="3.05085" rx="1.52542" fill="#00A7A7"/>
<rect x="60" y="33.5593" width="14.2373" height="2.0339" rx="1.01695" fill="#00A7A7"/>
<rect x="20.3394" y="38.644" width="7.11864" height="2.0339" rx="1.01695" fill="#00A7A7"/>
<rect x="22.373" y="42.7119" width="12.2034" height="2.0339" rx="1.01695" fill="#00A7A7"/>
<rect x="66.1021" y="37.6271" width="13.2203" height="2.0339" rx="1.01695" fill="#00A7A7"/>
<rect x="82.373" y="37.6271" width="4.0678" height="2.0339" rx="1.01695" fill="#00A7A7"/>
<rect x="76.2715" y="33.5593" width="10.1695" height="2.0339" rx="1.01695" fill="#00A7A7"/>
<rect x="30.5088" y="38.644" width="4.0678" height="2.0339" rx="1.01695" fill="#00A7A7"/>
</svg>
